<?xml version="1.0" encoding="utf-8"?>
<!-- Generator: Adobe Illustrator 17.0.0, SVG Export Plug-In . SVG Version: 6.00 Build 0)  -->
<!DOCTYPE svg PUBLIC "-//W3C//DTD SVG 1.1//EN" "http://www.w3.org/Graphics/SVG/1.1/DTD/svg11.dtd">
<svg version="1.1" id="Layer_1" xmlns="http://www.w3.org/2000/svg" xmlns:xlink="http://www.w3.org/1999/xlink" x="0px" y="0px"
	 width="70px" height="70px" viewBox="10 10 50 50" enable-background="new 0 0 70 70" xml:space="preserve">
<g>
	<g>
		<g>
			<path fill="#006bfD" d="M44.41,54.41l2.499-1.158c0.237,0.86,0.67,1.516,1.302,1.968c0.631,0.452,1.438,0.678,2.42,0.678
				c0.929,0,1.668-0.259,2.216-0.777c0.548-0.518,0.822-1.211,0.822-2.08c0-1.132-0.938-2.142-2.814-3.028
				c-0.263-0.132-0.465-0.228-0.605-0.29c-2.122-1.036-3.535-1.973-4.241-2.811c-0.706-0.838-1.058-1.863-1.058-3.074
				c0-1.571,0.532-2.844,1.597-3.819c1.065-0.974,2.461-1.461,4.189-1.461c1.42,0,2.608,0.275,3.564,0.823
				c0.956,0.549,1.618,1.336,1.985,2.363l-2.446,1.264c-0.386-0.606-0.808-1.049-1.269-1.33c-0.46-0.281-0.989-0.421-1.584-0.421
				c-0.842,0-1.51,0.22-2.005,0.658c-0.496,0.439-0.743,1.027-0.743,1.765c0,1.159,1.086,2.238,3.261,3.239
				c0.166,0.079,0.298,0.141,0.394,0.184c1.903,0.878,3.209,1.736,3.919,2.574c0.71,0.838,1.065,1.885,1.065,3.141
				c0,1.825-0.574,3.276-1.723,4.351c-1.148,1.075-2.7,1.613-4.655,1.613c-1.639,0-2.983-0.378-4.031-1.133
				C45.42,56.894,44.734,55.814,44.41,54.41z"/>
		</g>
		<g>
			<defs>
				<circle id="SVGID_1_" cx="17.596" cy="22.602" r="3.092"/>
			</defs>
			<use xlink:href="#SVGID_1_"  overflow="visible" fill="#006bfD"/>
			<clipPath id="SVGID_2_">
				<use xlink:href="#SVGID_1_"  overflow="visible"/>
			</clipPath>
		</g>
		<g>
			<defs>
				<path id="SVGID_3_" d="M21.383,49.947l7.1-1.119c0.977-0.154,1.846-0.023,2.605,0.395c0.758,0.417,1.184,0.997,1.275,1.74
					l0.04,0.323c0.091,0.743-0.179,1.432-0.808,2.068c-0.63,0.636-1.434,1.031-2.411,1.186l-7.1,1.119
					c-0.979,0.154-1.848,0.022-2.606-0.395c-0.759-0.418-1.183-0.998-1.275-1.74l-0.04-0.323c-0.091-0.743,0.178-1.432,0.807-2.068
					C19.6,50.496,20.405,50.101,21.383,49.947z"/>
			</defs>
			<use xlink:href="#SVGID_3_"  overflow="visible" fill="#006bfD"/>
			<clipPath id="SVGID_4_">
				<use xlink:href="#SVGID_3_"  overflow="visible"/>
			</clipPath>
		</g>
		<g>
			<defs>
				<path id="SVGID_5_" d="M20.457,42.408l7.1-1.119c0.977-0.154,1.846-0.022,2.605,0.395c0.758,0.417,1.184,0.997,1.275,1.74
					l0.039,0.323c0.091,0.742-0.179,1.432-0.808,2.068c-0.63,0.636-1.434,1.031-2.411,1.185l-7.1,1.119
					c-0.979,0.154-1.848,0.022-2.606-0.395c-0.759-0.418-1.184-0.998-1.275-1.74l-0.04-0.323c-0.091-0.743,0.178-1.432,0.808-2.068
					C18.674,42.957,19.478,42.562,20.457,42.408z"/>
			</defs>
			<use xlink:href="#SVGID_5_"  overflow="visible" fill="#006bfD"/>
			<clipPath id="SVGID_6_">
				<use xlink:href="#SVGID_5_"  overflow="visible"/>
			</clipPath>
		</g>
		<g>
			<defs>
				<path id="SVGID_7_" d="M19.574,34.84l19.406-3.057c0.978-0.154,1.846-0.022,2.606,0.395c0.758,0.418,1.183,0.997,1.274,1.74
					l0.04,0.323c0.091,0.743-0.178,1.432-0.807,2.067c-0.63,0.637-1.434,1.032-2.412,1.186l-19.406,3.058
					c-0.978,0.154-1.848,0.023-2.606-0.395c-0.759-0.417-1.183-0.997-1.274-1.74l-0.04-0.323c-0.091-0.742,0.178-1.431,0.807-2.068
					C17.791,35.39,18.596,34.994,19.574,34.84z"/>
			</defs>
			<use xlink:href="#SVGID_7_"  overflow="visible" fill="#006bfD"/>
			<clipPath id="SVGID_8_">
				<use xlink:href="#SVGID_7_"  overflow="visible"/>
			</clipPath>
		</g>
		<g>
			<defs>
				<path id="SVGID_9_" d="M18.57,27.301l32.186-5.071c0.977-0.154,1.847-0.022,2.606,0.395c0.758,0.418,1.183,0.997,1.275,1.74
					l0.039,0.323c0.091,0.743-0.178,1.432-0.807,2.067c-0.63,0.636-1.434,1.032-2.412,1.185l-32.186,5.071
					c-0.978,0.154-1.848,0.023-2.606-0.395c-0.759-0.417-1.183-0.997-1.274-1.74l-0.04-0.323c-0.091-0.742,0.178-1.431,0.807-2.068
					C16.787,27.85,17.592,27.455,18.57,27.301z"/>
			</defs>
			<use xlink:href="#SVGID_9_"  overflow="visible" fill="#006bfD"/>
			<clipPath id="SVGID_10_">
				<use xlink:href="#SVGID_9_"  overflow="visible"/>
			</clipPath>
		</g>
		<g>
			<defs>
				<path id="SVGID_11_" d="M31.347,17.586l18.56-2.973c0.978-0.154,1.846-0.022,2.605,0.395c0.758,0.418,1.184,0.998,1.275,1.74
					l0.04,0.323c0.091,0.743-0.179,1.432-0.808,2.068c-0.63,0.636-1.434,1.032-2.411,1.186l-18.56,2.973
					c-0.978,0.154-1.847,0.023-2.606-0.395c-0.759-0.417-1.184-0.997-1.275-1.74l-0.039-0.324c-0.091-0.742,0.178-1.431,0.808-2.067
					C29.564,18.136,30.369,17.741,31.347,17.586z"/>
			</defs>
			<use xlink:href="#SVGID_11_"  overflow="visible" fill="#006bfD"/>
			<clipPath id="SVGID_12_">
				<use xlink:href="#SVGID_11_"  overflow="visible"/>
			</clipPath>
		</g>
		<g>
			<defs>
				<path id="SVGID_13_" d="M16.794,12.223l15.62-2.461c0.977-0.154,1.846-0.022,2.605,0.395c0.758,0.418,1.184,0.998,1.275,1.739
					l0.04,0.323c0.091,0.743-0.179,1.432-0.808,2.068c-0.63,0.636-1.434,1.032-2.411,1.185l-15.62,2.461
					c-0.979,0.154-1.847,0.023-2.606-0.395c-0.759-0.417-1.184-0.997-1.274-1.739l-0.04-0.324c-0.091-0.742,0.178-1.432,0.807-2.068
					C15.012,12.772,15.816,12.377,16.794,12.223z"/>
			</defs>
			<use xlink:href="#SVGID_13_"  overflow="visible" fill="#006bfD"/>
			<clipPath id="SVGID_14_">
				<use xlink:href="#SVGID_13_"  overflow="visible"/>
			</clipPath>
		</g>
	</g>
</g>
</svg>
